<svg width="40" height="40" viewBox="0 0 40 40" fill="none" xmlns="http://www.w3.org/2000/svg">
<path d="M0 8C0 3.58172 3.58172 0 8 0H32C36.4183 0 40 3.58172 40 8V32C40 36.4183 36.4183 40 32 40H8C3.58172 40 0 36.4183 0 32V8Z" fill="#FFFBEB"/>
<path d="M18 11H22C26.4183 11 30 14.5817 30 19C30 23.4183 26.4183 27 22 27V30.5C17 28.5 10 25.5 10 19C10 14.5817 13.5817 11 18 11ZM20 25H22C25.3137 25 28 22.3137 28 19C28 15.6863 25.3137 13 22 13H18C14.6863 13 12 15.6863 12 19C12 22.61 14.4621 24.9656 20 27.4798V25Z" fill="#F97316"/>
</svg>
