<svg width="18" height="21" viewBox="0 0 18 21" fill="none" xmlns="http://www.w3.org/2000/svg">
<path d="M3.50488 0.0280762H14.5049C14.8196 0.0280762 15.116 0.176266 15.3049 0.428076L18.0049 4.02808V19.0281C18.0049 19.5804 17.5572 20.0281 17.0049 20.0281H1.00488C0.452603 20.0281 0.00488281 19.5804 0.00488281 19.0281V4.02808L2.70488 0.428076C2.89374 0.176266 3.19013 0.0280762 3.50488 0.0280762ZM16.0049 6.02808H2.00488V18.0281H16.0049V6.02808ZM15.5049 4.02808L14.0049 2.02808H4.00488L2.50488 4.02808H15.5049ZM6.00488 8.02808V10.0281C6.00488 11.685 7.348 13.0281 9.0049 13.0281C10.6617 13.0281 12.0049 11.685 12.0049 10.0281V8.02808H14.0049V10.0281C14.0049 12.7895 11.7663 15.0281 9.0049 15.0281C6.24346 15.0281 4.00488 12.7895 4.00488 10.0281V8.02808H6.00488Z" fill="#525252"/>
</svg>
