<svg width="16" height="18" viewBox="0 0 16 18" fill="none" xmlns="http://www.w3.org/2000/svg">
<path d="M3.83317 4.00008V1.50008C3.83317 1.03985 4.20627 0.666748 4.6665 0.666748H14.6665C15.1267 0.666748 15.4998 1.03985 15.4998 1.50008V13.1667C15.4998 13.627 15.1267 14.0001 14.6665 14.0001H12.1665V16.4993C12.1665 16.96 11.7916 17.3334 11.3275 17.3334H1.33888C0.875492 17.3334 0.5 16.9629 0.5 16.4993L0.502167 4.83414C0.50225 4.37351 0.8772 4.00008 1.34118 4.00008H3.83317ZM2.16868 5.66675L2.16682 15.6667H10.4998V5.66675H2.16868ZM5.49983 4.00008H12.1665V12.3334H13.8332V2.33341H5.49983V4.00008ZM3.83333 8.16675H8.83333V9.83342H3.83333V8.16675ZM3.83333 11.5001H8.83333V13.1667H3.83333V11.5001Z" fill="#4338CA"/>
</svg>
