<svg width="40" height="40" viewBox="0 0 40 40" fill="none" xmlns="http://www.w3.org/2000/svg">
<path d="M0 8C0 3.58172 3.58172 0 8 0H32C36.4183 0 40 3.58172 40 8V32C40 36.4183 36.4183 40 32 40H8C3.58172 40 0 36.4183 0 32V8Z" fill="#EEF2FF"/>
<path d="M10.2428 14.8542L19.4895 9.30843C19.8062 9.11848 20.2019 9.11855 20.5185 9.30862L29.7573 14.8542C29.9079 14.9445 30 15.1073 30 15.2829V27.9998C30 28.5521 29.5523 28.9998 29 28.9998H11C10.4477 28.9998 10 28.5521 10 27.9998V15.283C10 15.1073 10.0922 14.9445 10.2428 14.8542ZM12 16.1324V26.9998H28V16.132L20.0037 11.3322L12 16.1324ZM20.0597 21.6981L25.3556 17.2351L26.6444 18.7645L20.074 24.3016L13.364 18.7715L14.636 17.2281L20.0597 21.6981Z" fill="#4338CA"/>
</svg>
