<svg width="20" height="20" viewBox="0 0 20 20" fill="none" xmlns="http://www.w3.org/2000/svg">
<g clip-path="url(#clip0_2_1199)">
<path d="M13.4727 2.50537L14.3885 4.22261L16.1058 5.13848L14.3885 6.05434L13.4727 7.77157L12.5568 6.05434L10.8396 5.13848L12.5568 4.22261L13.4727 2.50537ZM9.0745 8.14773L12.5467 9.9996L9.0745 11.8514L7.22266 15.3236L5.37081 11.8514L1.89859 9.9996L5.37081 8.14773L7.22266 4.67551L9.0745 8.14773ZM9.59534 9.9996L8.04794 9.17432L7.22266 7.6269L6.39738 9.17432L4.84998 9.9996L6.39738 10.8249L7.22266 12.3722L8.04794 10.8249L9.59534 9.9996ZM15.3245 13.0088L14.1671 10.8387L13.0097 13.0088L10.8396 14.1663L13.0097 15.3236L14.1671 17.4938L15.3245 15.3236L17.4946 14.1663L15.3245 13.0088Z" fill="#171717"/>
</g>
<defs>
<clipPath id="clip0_2_1199">
<rect width="16.6667" height="16.6667" fill="white" transform="translate(1.66666 1.6665)"/>
</clipPath>
</defs>
</svg>
