<svg width="32" height="32" viewBox="0 0 32 32" fill="none" xmlns="http://www.w3.org/2000/svg">
<path d="M11.6836 24.0888L6.83331 25.1666L7.91114 20.3163C7.2233 19.0301 6.83331 17.5605 6.83331 15.9999C6.83331 10.9373 10.9374 6.83325 16 6.83325C21.0625 6.83325 25.1666 10.9373 25.1666 15.9999C25.1666 21.0625 21.0625 25.1666 16 25.1666C14.4394 25.1666 12.9698 24.7766 11.6836 24.0888ZM11.4166 15.9999C11.4166 18.5312 13.4687 20.5833 16 20.5833C18.5313 20.5833 20.5833 18.5312 20.5833 15.9999H18.75C18.75 17.5187 17.5188 18.7499 16 18.7499C14.4812 18.7499 13.25 17.5187 13.25 15.9999H11.4166Z" fill="#4338CA"/>
</svg>
