<svg width="116" height="21" viewBox="0 0 116 21" fill="none" xmlns="http://www.w3.org/2000/svg">
<g clip-path="url(#clip0_2_7580)">
<path d="M9.53834 1.66636C9.70914 1.25571 10.2909 1.25571 10.4617 1.66636L12.5278 6.63384C12.5998 6.80696 12.7626 6.92524 12.9495 6.94023L18.3123 7.37016C18.7556 7.4057 18.9354 7.95895 18.5976 8.24829L14.5117 11.7483C14.3693 11.8703 14.3071 12.0617 14.3506 12.244L15.5989 17.4772C15.7021 17.9098 15.2315 18.2518 14.8519 18.0199L10.2606 15.2156C10.1006 15.1179 9.89938 15.1179 9.73937 15.2156L5.14806 18.0199C4.76851 18.2518 4.29788 17.9098 4.40108 17.4772L5.64939 12.244C5.69289 12.0617 5.6307 11.8703 5.48831 11.7483L1.40241 8.24829C1.06464 7.95895 1.24441 7.4057 1.68773 7.37016L7.05054 6.94023C7.23744 6.92524 7.40024 6.80696 7.47225 6.63384L9.53834 1.66636Z" fill="#E5E7EB"/>
<g clip-path="url(#clip1_2_7580)">
<path d="M9.53834 1.66636C9.70914 1.25571 10.2909 1.25571 10.4617 1.66636L12.5278 6.63384C12.5998 6.80696 12.7626 6.92524 12.9495 6.94023L18.3123 7.37016C18.7556 7.4057 18.9354 7.95895 18.5976 8.24829L14.5117 11.7483C14.3693 11.8703 14.3071 12.0617 14.3506 12.244L15.5989 17.4772C15.7021 17.9098 15.2315 18.2518 14.8519 18.0199L10.2606 15.2156C10.1006 15.1179 9.89938 15.1179 9.73937 15.2156L5.14806 18.0199C4.76851 18.2518 4.29788 17.9098 4.40108 17.4772L5.64939 12.244C5.69289 12.0617 5.6307 11.8703 5.48831 11.7483L1.40241 8.24829C1.06464 7.95895 1.24441 7.4057 1.68773 7.37016L7.05054 6.94023C7.23744 6.92524 7.40024 6.80696 7.47225 6.63384L9.53834 1.66636Z" fill="#FACC15"/>
</g>
</g>
<g clip-path="url(#clip2_2_7580)">
<path d="M33.5383 1.66636C33.7091 1.25571 34.2909 1.25571 34.4617 1.66636L36.5278 6.63384C36.5998 6.80696 36.7626 6.92524 36.9495 6.94023L42.3123 7.37016C42.7556 7.4057 42.9354 7.95895 42.5976 8.24829L38.5117 11.7483C38.3693 11.8703 38.3071 12.0617 38.3506 12.244L39.5989 17.4772C39.7021 17.9098 39.2315 18.2518 38.8519 18.0199L34.2606 15.2156C34.1006 15.1179 33.8994 15.1179 33.7394 15.2156L29.1481 18.0199C28.7685 18.2518 28.2979 17.9098 28.4011 17.4772L29.6494 12.244C29.6929 12.0617 29.6307 11.8703 29.4883 11.7483L25.4024 8.24829C25.0646 7.95895 25.2444 7.4057 25.6877 7.37016L31.0505 6.94023C31.2374 6.92524 31.4002 6.80696 31.4722 6.63384L33.5383 1.66636Z" fill="#E5E7EB"/>
<g clip-path="url(#clip3_2_7580)">
<path d="M33.5383 1.66636C33.7091 1.25571 34.2909 1.25571 34.4617 1.66636L36.5278 6.63384C36.5998 6.80696 36.7626 6.92524 36.9495 6.94023L42.3123 7.37016C42.7556 7.4057 42.9354 7.95895 42.5976 8.24829L38.5117 11.7483C38.3693 11.8703 38.3071 12.0617 38.3506 12.244L39.5989 17.4772C39.7021 17.9098 39.2315 18.2518 38.8519 18.0199L34.2606 15.2156C34.1006 15.1179 33.8994 15.1179 33.7394 15.2156L29.1481 18.0199C28.7685 18.2518 28.2979 17.9098 28.4011 17.4772L29.6494 12.244C29.6929 12.0617 29.6307 11.8703 29.4883 11.7483L25.4024 8.24829C25.0646 7.95895 25.2444 7.4057 25.6877 7.37016L31.0505 6.94023C31.2374 6.92524 31.4002 6.80696 31.4722 6.63384L33.5383 1.66636Z" fill="#FACC15"/>
</g>
</g>
<g clip-path="url(#clip4_2_7580)">
<path d="M57.5383 1.66636C57.7091 1.25571 58.2909 1.25571 58.4617 1.66636L60.5278 6.63384C60.5998 6.80696 60.7626 6.92524 60.9495 6.94023L66.3123 7.37016C66.7556 7.4057 66.9354 7.95895 66.5976 8.24829L62.5117 11.7483C62.3693 11.8703 62.3071 12.0617 62.3506 12.244L63.5989 17.4772C63.7021 17.9098 63.2315 18.2518 62.8519 18.0199L58.2606 15.2156C58.1006 15.1179 57.8994 15.1179 57.7394 15.2156L53.1481 18.0199C52.7685 18.2518 52.2979 17.9098 52.4011 17.4772L53.6494 12.244C53.6929 12.0617 53.6307 11.8703 53.4883 11.7483L49.4024 8.24829C49.0646 7.95895 49.2444 7.4057 49.6877 7.37016L55.0505 6.94023C55.2374 6.92524 55.4002 6.80696 55.4722 6.63384L57.5383 1.66636Z" fill="#E5E7EB"/>
<g clip-path="url(#clip5_2_7580)">
<path d="M57.5383 1.66636C57.7091 1.25571 58.2909 1.25571 58.4617 1.66636L60.5278 6.63384C60.5998 6.80696 60.7626 6.92524 60.9495 6.94023L66.3123 7.37016C66.7556 7.4057 66.9354 7.95895 66.5976 8.24829L62.5117 11.7483C62.3693 11.8703 62.3071 12.0617 62.3506 12.244L63.5989 17.4772C63.7021 17.9098 63.2315 18.2518 62.8519 18.0199L58.2606 15.2156C58.1006 15.1179 57.8994 15.1179 57.7394 15.2156L53.1481 18.0199C52.7685 18.2518 52.2979 17.9098 52.4011 17.4772L53.6494 12.244C53.6929 12.0617 53.6307 11.8703 53.4883 11.7483L49.4024 8.24829C49.0646 7.95895 49.2444 7.4057 49.6877 7.37016L55.0505 6.94023C55.2374 6.92524 55.4002 6.80696 55.4722 6.63384L57.5383 1.66636Z" fill="#FACC15"/>
</g>
</g>
<g clip-path="url(#clip6_2_7580)">
<path d="M81.5383 1.66636C81.7091 1.25571 82.2909 1.25571 82.4617 1.66636L84.5278 6.63384C84.5998 6.80696 84.7626 6.92524 84.9495 6.94023L90.3123 7.37016C90.7556 7.4057 90.9354 7.95895 90.5976 8.24829L86.5117 11.7483C86.3693 11.8703 86.3071 12.0617 86.3506 12.244L87.5989 17.4772C87.7021 17.9098 87.2315 18.2518 86.8519 18.0199L82.2606 15.2156C82.1006 15.1179 81.8994 15.1179 81.7394 15.2156L77.1481 18.0199C76.7685 18.2518 76.2979 17.9098 76.4011 17.4772L77.6494 12.244C77.6929 12.0617 77.6307 11.8703 77.4883 11.7483L73.4024 8.24829C73.0646 7.95895 73.2444 7.4057 73.6877 7.37016L79.0505 6.94023C79.2374 6.92524 79.4002 6.80696 79.4722 6.63384L81.5383 1.66636Z" fill="#E5E7EB"/>
<g clip-path="url(#clip7_2_7580)">
<path d="M81.5383 1.66636C81.7091 1.25571 82.2909 1.25571 82.4617 1.66636L84.5278 6.63384C84.5998 6.80696 84.7626 6.92524 84.9495 6.94023L90.3123 7.37016C90.7556 7.4057 90.9354 7.95895 90.5976 8.24829L86.5117 11.7483C86.3693 11.8703 86.3071 12.0617 86.3506 12.244L87.5989 17.4772C87.7021 17.9098 87.2315 18.2518 86.8519 18.0199L82.2606 15.2156C82.1006 15.1179 81.8994 15.1179 81.7394 15.2156L77.1481 18.0199C76.7685 18.2518 76.2979 17.9098 76.4011 17.4772L77.6494 12.244C77.6929 12.0617 77.6307 11.8703 77.4883 11.7483L73.4024 8.24829C73.0646 7.95895 73.2444 7.4057 73.6877 7.37016L79.0505 6.94023C79.2374 6.92524 79.4002 6.80696 79.4722 6.63384L81.5383 1.66636Z" fill="#FACC15"/>
</g>
</g>
<g clip-path="url(#clip8_2_7580)">
<path d="M105.538 1.66636C105.709 1.25571 106.291 1.25571 106.462 1.66636L108.528 6.63384C108.6 6.80696 108.763 6.92524 108.949 6.94023L114.312 7.37016C114.756 7.4057 114.935 7.95895 114.598 8.24829L110.512 11.7483C110.369 11.8703 110.307 12.0617 110.351 12.244L111.599 17.4772C111.702 17.9098 111.231 18.2518 110.852 18.0199L106.261 15.2156C106.101 15.1179 105.899 15.1179 105.739 15.2156L101.148 18.0199C100.769 18.2518 100.298 17.9098 100.401 17.4772L101.649 12.244C101.693 12.0617 101.631 11.8703 101.488 11.7483L97.4024 8.24829C97.0646 7.95895 97.2444 7.4057 97.6877 7.37016L103.051 6.94023C103.237 6.92524 103.4 6.80696 103.472 6.63384L105.538 1.66636Z" fill="#E5E7EB"/>
<g clip-path="url(#clip9_2_7580)">
<path d="M105.538 1.66636C105.709 1.25571 106.291 1.25571 106.462 1.66636L108.528 6.63384C108.6 6.80696 108.763 6.92524 108.949 6.94023L114.312 7.37016C114.756 7.4057 114.935 7.95895 114.598 8.24829L110.512 11.7483C110.369 11.8703 110.307 12.0617 110.351 12.244L111.599 17.4772C111.702 17.9098 111.231 18.2518 110.852 18.0199L106.261 15.2156C106.101 15.1179 105.899 15.1179 105.739 15.2156L101.148 18.0199C100.769 18.2518 100.298 17.9098 100.401 17.4772L101.649 12.244C101.693 12.0617 101.631 11.8703 101.488 11.7483L97.4024 8.24829C97.0646 7.95895 97.2444 7.4057 97.6877 7.37016L103.051 6.94023C103.237 6.92524 103.4 6.80696 103.472 6.63384L105.538 1.66636Z" fill="#FACC15"/>
</g>
</g>
<defs>
<clipPath id="clip0_2_7580">
<rect width="20" height="20" fill="white" transform="translate(0 0.0563965)"/>
</clipPath>
<clipPath id="clip1_2_7580">
<rect width="20" height="20" fill="white" transform="translate(0 0.0563965)"/>
</clipPath>
<clipPath id="clip2_2_7580">
<rect width="20" height="20" fill="white" transform="translate(24 0.0563965)"/>
</clipPath>
<clipPath id="clip3_2_7580">
<rect width="20" height="20" fill="white" transform="translate(24 0.0563965)"/>
</clipPath>
<clipPath id="clip4_2_7580">
<rect width="20" height="20" fill="white" transform="translate(48 0.0563965)"/>
</clipPath>
<clipPath id="clip5_2_7580">
<rect width="20" height="20" fill="white" transform="translate(48 0.0563965)"/>
</clipPath>
<clipPath id="clip6_2_7580">
<rect width="20" height="20" fill="white" transform="translate(72 0.0563965)"/>
</clipPath>
<clipPath id="clip7_2_7580">
<rect width="20" height="20" fill="white" transform="translate(72 0.0563965)"/>
</clipPath>
<clipPath id="clip8_2_7580">
<rect width="20" height="20" fill="white" transform="translate(96 0.0563965)"/>
</clipPath>
<clipPath id="clip9_2_7580">
<rect width="10" height="20" fill="white" transform="translate(96 0.0563965)"/>
</clipPath>
</defs>
</svg>
