<svg width="160" height="37" viewBox="0 0 160 37" fill="none" xmlns="http://www.w3.org/2000/svg">
<path fill-rule="evenodd" clip-rule="evenodd" d="M18.6349 12.4538C19.2812 12.9297 19.647 13.5973 19.7322 14.4567H24.1534C24.1321 13.157 23.7841 12.0135 23.1094 11.0263C22.5437 10.1986 21.7883 9.52316 20.8432 9H26C27.1046 9 28 9.89543 28 11V25C28 26.1046 27.1046 27 26 27H23.5858C24.1565 26.0726 24.4452 24.9952 24.4517 23.7678C24.4446 22.8587 24.2777 22.0526 23.951 21.3494C23.6314 20.6463 23.1804 20.0355 22.598 19.517C22.0156 18.9986 21.3267 18.5618 20.5312 18.2067C19.7358 17.8516 18.8622 17.5675 17.9105 17.3544L15.9503 16.8857C15.4744 16.7791 15.027 16.6513 14.608 16.5021C14.1889 16.3459 13.8196 16.1648 13.5 15.9588C13.1804 15.7457 12.9283 15.4936 12.7436 15.2024C12.5661 14.9112 12.4844 14.5703 12.4986 14.1797C12.4986 13.7109 12.6335 13.2919 12.9034 12.9226C13.1804 12.5533 13.5781 12.2656 14.0966 12.0597C14.6151 11.8466 15.2507 11.7401 16.0036 11.7401C17.1115 11.7401 17.9886 11.978 18.6349 12.4538ZM8.26511 27H6C4.89543 27 4 26.1046 4 25V11C4 9.89543 4.89543 9 6 9H11.1891C10.2132 9.52316 9.42457 10.1986 8.82315 11.0263C8.11293 12.0135 7.76136 13.1676 7.76847 14.4886C7.76136 16.1009 8.29048 17.3828 9.35582 18.3345C10.4212 19.2862 11.8736 19.9858 13.7131 20.4332L16.0888 21.0298C16.8842 21.2216 17.5554 21.4347 18.1023 21.669C18.6562 21.9034 19.0753 22.1875 19.3594 22.5213C19.6506 22.8551 19.7962 23.267 19.7962 23.7571C19.7962 24.2827 19.6364 24.7479 19.3168 25.1527C18.9972 25.5575 18.5462 25.8736 17.9638 26.1009C17.3885 26.3281 16.7102 26.4418 15.929 26.4418C15.1335 26.4418 14.4197 26.321 13.7876 26.0795C13.1626 25.831 12.6619 25.4652 12.2855 24.9822C11.9162 24.4922 11.7067 23.8814 11.657 23.1499H7.19318C7.22757 24.6696 7.58488 25.953 8.26511 27Z" fill="#6366F1"/>
<path d="M45.758 20.936C45.758 21.692 45.572 22.352 45.2 22.916C44.828 23.48 44.288 23.918 43.58 24.23C42.884 24.53 42.032 24.68 41.024 24.68C40.58 24.68 40.142 24.65 39.71 24.59C39.29 24.53 38.882 24.446 38.486 24.338C38.102 24.218 37.736 24.074 37.388 23.906V21.368C38 21.632 38.63 21.878 39.278 22.106C39.938 22.322 40.592 22.43 41.24 22.43C41.684 22.43 42.038 22.37 42.302 22.25C42.578 22.13 42.776 21.968 42.896 21.764C43.028 21.56 43.094 21.326 43.094 21.062C43.094 20.738 42.98 20.462 42.752 20.234C42.536 20.006 42.242 19.796 41.87 19.604C41.498 19.4 41.072 19.184 40.592 18.956C40.292 18.812 39.968 18.644 39.62 18.452C39.272 18.248 38.936 18.002 38.612 17.714C38.3 17.414 38.042 17.054 37.838 16.634C37.634 16.214 37.532 15.71 37.532 15.122C37.532 14.354 37.706 13.7 38.054 13.16C38.414 12.608 38.918 12.188 39.566 11.9C40.226 11.612 41 11.468 41.888 11.468C42.56 11.468 43.196 11.546 43.796 11.702C44.408 11.858 45.044 12.08 45.704 12.368L44.822 14.492C44.234 14.252 43.706 14.066 43.238 13.934C42.77 13.802 42.29 13.736 41.798 13.736C41.462 13.736 41.174 13.79 40.934 13.898C40.694 14.006 40.508 14.156 40.376 14.348C40.256 14.54 40.196 14.768 40.196 15.032C40.196 15.332 40.286 15.59 40.466 15.806C40.646 16.01 40.916 16.208 41.276 16.4C41.636 16.592 42.086 16.82 42.626 17.084C43.286 17.396 43.844 17.72 44.3 18.056C44.768 18.392 45.128 18.788 45.38 19.244C45.632 19.7 45.758 20.264 45.758 20.936ZM50.9381 22.538C51.2381 22.538 51.5261 22.508 51.8021 22.448C52.0781 22.388 52.3541 22.316 52.6301 22.232V24.23C52.3421 24.35 51.9821 24.452 51.5501 24.536C51.1301 24.632 50.6681 24.68 50.1641 24.68C49.5761 24.68 49.0481 24.584 48.5801 24.392C48.1241 24.2 47.7581 23.87 47.4821 23.402C47.2181 22.922 47.0861 22.262 47.0861 21.422V16.688H45.8081V15.554L47.2841 14.654L48.0581 12.584H49.7681V14.672H52.5221V16.688H49.7681V21.422C49.7681 21.794 49.8761 22.076 50.0921 22.268C50.3081 22.448 50.5901 22.538 50.9381 22.538ZM52.1187 14.672H55.0527L56.9067 20.198C56.9667 20.378 57.0147 20.558 57.0507 20.738C57.0987 20.918 57.1347 21.104 57.1587 21.296C57.1947 21.488 57.2187 21.692 57.2307 21.908H57.2847C57.3207 21.596 57.3687 21.302 57.4287 21.026C57.5007 20.738 57.5787 20.462 57.6627 20.198L59.4807 14.672H62.3607L58.2027 25.76C57.9507 26.432 57.6207 26.996 57.2127 27.452C56.8167 27.908 56.3547 28.25 55.8267 28.478C55.2987 28.706 54.7227 28.82 54.0987 28.82C53.7987 28.82 53.5347 28.802 53.3067 28.766C53.0907 28.742 52.8987 28.712 52.7307 28.676V26.552C52.8627 26.576 53.0187 26.6 53.1987 26.624C53.3907 26.648 53.5887 26.66 53.7927 26.66C54.1647 26.66 54.4827 26.582 54.7467 26.426C55.0227 26.27 55.2507 26.054 55.4307 25.778C55.6107 25.514 55.7547 25.226 55.8627 24.914L56.0247 24.428L52.1187 14.672ZM65.3728 24.5H62.6908V10.82H65.3728V24.5ZM71.1452 14.492C72.0572 14.492 72.8372 14.666 73.4852 15.014C74.1452 15.362 74.6552 15.866 75.0152 16.526C75.3752 17.186 75.5552 17.996 75.5552 18.956V20.252H69.2192C69.2432 21.008 69.4652 21.602 69.8852 22.034C70.3172 22.466 70.9112 22.682 71.6672 22.682C72.3032 22.682 72.8792 22.622 73.3952 22.502C73.9112 22.37 74.4452 22.172 74.9972 21.908V23.978C74.5172 24.218 74.0072 24.392 73.4672 24.5C72.9392 24.62 72.2972 24.68 71.5412 24.68C70.5572 24.68 69.6872 24.5 68.9312 24.14C68.1752 23.768 67.5812 23.21 67.1492 22.466C66.7172 21.722 66.5012 20.786 66.5012 19.658C66.5012 18.506 66.6932 17.552 67.0772 16.796C67.4732 16.028 68.0192 15.452 68.7152 15.068C69.4112 14.684 70.2212 14.492 71.1452 14.492ZM71.1632 16.4C70.6472 16.4 70.2152 16.568 69.8672 16.904C69.5312 17.24 69.3332 17.762 69.2732 18.47H73.0352C73.0352 18.074 72.9632 17.72 72.8192 17.408C72.6872 17.096 72.4832 16.85 72.2072 16.67C71.9312 16.49 71.5832 16.4 71.1632 16.4ZM88.2599 24.5H84.8039L79.2059 14.78H79.1339C79.1459 15.08 79.1579 15.386 79.1699 15.698C79.1819 15.998 79.1939 16.304 79.2059 16.616C79.2299 16.916 79.2479 17.222 79.2599 17.534C79.2719 17.834 79.2839 18.14 79.2959 18.452V24.5H76.8659V11.648H80.3039L85.8839 21.278H85.9379C85.9259 20.978 85.9139 20.684 85.9019 20.396C85.8899 20.096 85.8779 19.802 85.8659 19.514C85.8659 19.214 85.8599 18.92 85.8479 18.632C85.8359 18.332 85.8239 18.032 85.8119 17.732V11.648H88.2599V24.5ZM94.2625 14.492C95.1745 14.492 95.9545 14.666 96.6025 15.014C97.2625 15.362 97.7725 15.866 98.1325 16.526C98.4925 17.186 98.6725 17.996 98.6725 18.956V20.252H92.3365C92.3605 21.008 92.5825 21.602 93.0025 22.034C93.4345 22.466 94.0285 22.682 94.7845 22.682C95.4205 22.682 95.9965 22.622 96.5125 22.502C97.0285 22.37 97.5625 22.172 98.1145 21.908V23.978C97.6345 24.218 97.1245 24.392 96.5845 24.5C96.0565 24.62 95.4145 24.68 94.6585 24.68C93.6745 24.68 92.8045 24.5 92.0485 24.14C91.2925 23.768 90.6985 23.21 90.2665 22.466C89.8345 21.722 89.6185 20.786 89.6185 19.658C89.6185 18.506 89.8105 17.552 90.1945 16.796C90.5905 16.028 91.1365 15.452 91.8325 15.068C92.5285 14.684 93.3385 14.492 94.2625 14.492ZM94.2805 16.4C93.7645 16.4 93.3325 16.568 92.9845 16.904C92.6485 17.24 92.4505 17.762 92.3905 18.47H96.1525C96.1525 18.074 96.0805 17.72 95.9365 17.408C95.8045 17.096 95.6005 16.85 95.3245 16.67C95.0485 16.49 94.7005 16.4 94.2805 16.4ZM106.625 21.584C106.625 22.244 106.469 22.808 106.157 23.276C105.845 23.732 105.377 24.08 104.753 24.32C104.129 24.56 103.355 24.68 102.431 24.68C101.747 24.68 101.159 24.632 100.667 24.536C100.175 24.452 99.6833 24.308 99.1913 24.104V21.89C99.7193 22.13 100.289 22.328 100.901 22.484C101.513 22.64 102.053 22.718 102.521 22.718C103.049 22.718 103.421 22.64 103.637 22.484C103.865 22.328 103.979 22.124 103.979 21.872C103.979 21.704 103.931 21.554 103.835 21.422C103.751 21.29 103.559 21.14 103.259 20.972C102.959 20.804 102.491 20.588 101.855 20.324C101.243 20.06 100.739 19.802 100.343 19.55C99.9473 19.286 99.6533 18.974 99.4613 18.614C99.2693 18.242 99.1733 17.78 99.1733 17.228C99.1733 16.316 99.5273 15.632 100.235 15.176C100.943 14.72 101.885 14.492 103.061 14.492C103.673 14.492 104.255 14.552 104.807 14.672C105.359 14.792 105.929 14.99 106.517 15.266L105.707 17.192C105.383 17.048 105.071 16.922 104.771 16.814C104.471 16.706 104.177 16.622 103.889 16.562C103.613 16.502 103.325 16.472 103.025 16.472C102.629 16.472 102.329 16.526 102.125 16.634C101.933 16.742 101.837 16.904 101.837 17.12C101.837 17.276 101.885 17.42 101.981 17.552C102.089 17.672 102.287 17.804 102.575 17.948C102.875 18.092 103.313 18.284 103.889 18.524C104.453 18.752 104.939 18.992 105.347 19.244C105.755 19.484 106.067 19.79 106.283 20.162C106.511 20.522 106.625 20.996 106.625 21.584ZM111.775 22.538C112.075 22.538 112.363 22.508 112.639 22.448C112.915 22.388 113.191 22.316 113.467 22.232V24.23C113.179 24.35 112.819 24.452 112.387 24.536C111.967 24.632 111.505 24.68 111.001 24.68C110.413 24.68 109.885 24.584 109.417 24.392C108.961 24.2 108.595 23.87 108.319 23.402C108.055 22.922 107.923 22.262 107.923 21.422V16.688H106.645V15.554L108.121 14.654L108.895 12.584H110.605V14.672H113.359V16.688H110.605V21.422C110.605 21.794 110.713 22.076 110.929 22.268C111.145 22.448 111.427 22.538 111.775 22.538Z" fill="#171717"/>
</svg>
