<svg width="70" height="48" viewBox="0 0 70 48" fill="none" xmlns="http://www.w3.org/2000/svg">
<path d="M0.5 6C0.5 2.96243 2.96243 0.5 6 0.5H64C67.0376 0.5 69.5 2.96243 69.5 6V42C69.5 45.0376 67.0376 47.5 64 47.5H6C2.96243 47.5 0.5 45.0376 0.5 42V6Z" fill="white"/>
<path d="M0.5 6C0.5 2.96243 2.96243 0.5 6 0.5H64C67.0376 0.5 69.5 2.96243 69.5 6V42C69.5 45.0376 67.0376 47.5 64 47.5H6C2.96243 47.5 0.5 45.0376 0.5 42V6Z" stroke="#E5E5E5"/>
<path fill-rule="evenodd" clip-rule="evenodd" d="M21.6241 31.7164H17.4809L14.3741 19.5847C14.2266 19.0266 13.9135 18.5333 13.4529 18.3008C12.3035 17.7164 11.0369 17.2514 9.65518 17.0168V16.5497H16.3295C17.2506 16.5497 17.9415 17.2514 18.0566 18.0662L19.6687 26.8172L23.8098 16.5497H27.8378L21.6241 31.7164ZM30.1417 31.7165H26.2288L29.4508 16.5498H33.3637L30.1417 31.7165ZM38.4242 20.7514C38.5394 19.9345 39.2302 19.4674 40.0362 19.4674C41.3028 19.3502 42.6825 19.5847 43.834 20.167L44.5248 16.9016C43.3734 16.4345 42.1068 16.2 40.9574 16.2C37.1597 16.2 34.3962 18.3008 34.3962 21.2164C34.3962 23.4345 36.3537 24.5992 37.7354 25.3008C39.2302 26.0004 39.806 26.4675 39.6908 27.1671C39.6908 28.2164 38.5394 28.6835 37.39 28.6835C36.0082 28.6835 34.6265 28.3337 33.3619 27.7494L32.6711 31.0169C34.0528 31.5992 35.5477 31.8337 36.9294 31.8337C41.1877 31.949 43.834 29.8502 43.834 26.7C43.834 22.7329 38.4242 22.5004 38.4242 20.7514ZM57.5287 31.7164L54.4219 16.5497H51.0847C50.3939 16.5497 49.703 17.0168 49.4727 17.7164L43.7196 31.7164H47.7476L48.5516 29.5004H53.5007L53.9613 31.7164H57.5287ZM51.6614 20.6343L52.8109 26.3504H49.5888L51.6614 20.6343Z" fill="#172B85"/>
</svg>
