<svg width="40" height="40" viewBox="0 0 40 40" fill="none" xmlns="http://www.w3.org/2000/svg">
<path d="M0 8C0 3.58172 3.58172 0 8 0H32C36.4183 0 40 3.58172 40 8V32C40 36.4183 36.4183 40 32 40H8C3.58172 40 0 36.4183 0 32V8Z" fill="#F0FDF4"/>
<path d="M23.7279 17.5763L22.3137 16.1621L13 25.4758V26.89H14.4142L23.7279 17.5763ZM25.1421 16.1621L26.5563 14.7479L25.1421 13.3337L23.7279 14.7479L25.1421 16.1621ZM15.2426 28.89H11V24.6474L24.435 11.2123C24.8256 10.8218 25.4587 10.8218 25.8492 11.2123L28.6777 14.0408C29.0682 14.4313 29.0682 15.0644 28.6777 15.455L15.2426 28.89Z" fill="#15803D"/>
</svg>
